<?xml version="1.0" encoding="utf-8"?>
<!-- Generator: Adobe Illustrator 25.2.0, SVG Export Plug-In . SVG Version: 6.00 Build 0)  -->
<svg version="1.1" xmlns="http://www.w3.org/2000/svg" xmlns:xlink="http://www.w3.org/1999/xlink" x="0px" y="0px"
	 viewBox="0 0 500 326.87" style="enable-background:new 0 0 500 326.87;" xml:space="preserve">
<style type="text/css">
	.st0{fill:none;stroke:#000000;stroke-width:7;stroke-miterlimit:10;}
	.st1{fill:#0892FF;}
	.st2{display:none;}
	.st3{fill:#D10037;}
	.st4{fill:#FF74FD;}
	.st5{fill:#93FFA7;}
	.st6{fill:#FF0A38;}
	.st7{display:none;fill:none;stroke:#000000;stroke-miterlimit:10;}
</style>
<g id="layer_1">
</g>
<g id="PCs">
</g>
<g id="Art_1">
</g>
<g id="Art_2">
</g>
<g id="Art_3">
	<g id="art_3_pc">
		<ellipse cx="365.82" cy="113.65" rx="14.65" ry="3.75"/>
		<g>
			<path d="M367.06,105.57c0,0.69-0.55,1.25-1.24,1.25s-1.25-0.56-1.25-1.25c0-0.6,0.43-1.1,1-1.21v1.28c0,0.14,0.11,0.25,0.25,0.25
				s0.24-0.11,0.24-0.25v-1.28C366.64,104.47,367.06,104.97,367.06,105.57z"/>
		</g>
		<g>
			<path d="M395.02,67.54h-58.69c-0.64,0-1.16,0.52-1.16,1.16v38.2c0,0.64,0.52,1.16,1.16,1.16h58.69c0.64,0,1.16-0.52,1.16-1.16
				v-38.2C396.18,68.06,395.66,67.54,395.02,67.54z M365.82,107.29c-0.95,0-1.71-0.77-1.71-1.72c0-0.86,0.64-1.57,1.47-1.7v-0.7
				c0-0.14,0.11-0.24,0.25-0.24s0.24,0.11,0.24,0.24v0.7c0.83,0.12,1.47,0.83,1.47,1.7C367.54,106.52,366.77,107.29,365.82,107.29z"
				/>
		</g>
		<rect x="340.09" y="72.2" class="st6" width="51.46" height="29.34"/>
		<rect x="363.05" y="108.07" width="5.54" height="2.51"/>
		<path class="st2" d="M372.4,111.18h-13.15v0c0-0.34,0.27-0.61,0.61-0.61h11.94C372.13,110.58,372.4,110.85,372.4,111.18
			L372.4,111.18z"/>
	</g>
	<g id="art_3_pc_1_">
		<ellipse cx="131.79" cy="113.65" rx="14.65" ry="3.75"/>
		<g>
			<path d="M133.03,105.57c0,0.69-0.55,1.25-1.24,1.25c-0.69,0-1.25-0.56-1.25-1.25c0-0.6,0.43-1.1,1-1.21v1.28
				c0,0.14,0.11,0.25,0.25,0.25c0.14,0,0.24-0.11,0.24-0.25v-1.28C132.6,104.47,133.03,104.97,133.03,105.57z"/>
		</g>
		<g>
			<path d="M160.98,67.54h-58.69c-0.64,0-1.16,0.52-1.16,1.16v38.2c0,0.64,0.52,1.16,1.16,1.16h58.69c0.64,0,1.16-0.52,1.16-1.16
				v-38.2C162.14,68.06,161.62,67.54,160.98,67.54z M131.79,107.29c-0.95,0-1.71-0.77-1.71-1.72c0-0.86,0.64-1.57,1.47-1.7v-0.7
				c0-0.14,0.11-0.24,0.25-0.24c0.14,0,0.24,0.11,0.24,0.24v0.7c0.83,0.12,1.47,0.83,1.47,1.7
				C133.5,106.52,132.73,107.29,131.79,107.29z"/>
		</g>
		<rect x="106.05" y="72.2" class="st6" width="51.46" height="29.34"/>
		<rect x="129.02" y="108.07" width="5.54" height="2.51"/>
		<path class="st2" d="M138.36,111.18h-13.15v0c0-0.34,0.27-0.61,0.61-0.61h11.94C138.09,110.58,138.36,110.85,138.36,111.18
			L138.36,111.18z"/>
	</g>
	<g id="art_3_pc_2_">
		<ellipse cx="131.79" cy="267.28" rx="14.65" ry="3.75"/>
		<g>
			<path d="M133.03,259.2c0,0.69-0.55,1.25-1.24,1.25c-0.69,0-1.25-0.56-1.25-1.25c0-0.6,0.43-1.1,1-1.21v1.28
				c0,0.14,0.11,0.25,0.25,0.25c0.14,0,0.24-0.11,0.24-0.25v-1.28C132.6,258.09,133.03,258.6,133.03,259.2z"/>
		</g>
		<g>
			<path d="M160.98,221.17h-58.69c-0.64,0-1.16,0.52-1.16,1.16v38.2c0,0.64,0.52,1.16,1.16,1.16h58.69c0.64,0,1.16-0.52,1.16-1.16
				v-38.2C162.14,221.69,161.62,221.17,160.98,221.17z M131.79,260.92c-0.95,0-1.71-0.77-1.71-1.72c0-0.86,0.64-1.57,1.47-1.7v-0.7
				c0-0.14,0.11-0.24,0.25-0.24c0.14,0,0.24,0.11,0.24,0.24v0.7c0.83,0.12,1.47,0.83,1.47,1.7
				C133.5,260.15,132.73,260.92,131.79,260.92z"/>
		</g>
		<rect x="106.05" y="225.83" class="st6" width="51.46" height="29.34"/>
		<rect x="129.02" y="261.7" width="5.54" height="2.51"/>
		<path class="st2" d="M138.36,264.81h-13.15l0,0c0-0.34,0.27-0.61,0.61-0.61h11.94C138.09,264.21,138.36,264.48,138.36,264.81
			L138.36,264.81z"/>
	</g>
	<g id="art_3_pc_3_">
		<ellipse cx="367.21" cy="267.28" rx="14.65" ry="3.75"/>
		<g>
			<path d="M368.46,259.2c0,0.69-0.55,1.25-1.24,1.25s-1.25-0.56-1.25-1.25c0-0.6,0.43-1.1,1-1.21v1.28c0,0.14,0.11,0.25,0.25,0.25
				s0.24-0.11,0.24-0.25v-1.28C368.03,258.09,368.46,258.6,368.46,259.2z"/>
		</g>
		<g>
			<path d="M396.41,221.17h-58.69c-0.64,0-1.16,0.52-1.16,1.16v38.2c0,0.64,0.52,1.16,1.16,1.16h58.69c0.64,0,1.16-0.52,1.16-1.16
				v-38.2C397.57,221.69,397.05,221.17,396.41,221.17z M367.21,260.92c-0.95,0-1.71-0.77-1.71-1.72c0-0.86,0.64-1.57,1.47-1.7v-0.7
				c0-0.14,0.11-0.24,0.25-0.24s0.24,0.11,0.24,0.24v0.7c0.83,0.12,1.47,0.83,1.47,1.7C368.93,260.15,368.16,260.92,367.21,260.92z"
				/>
		</g>
		<rect x="341.48" y="225.83" class="st6" width="51.46" height="29.34"/>
		<rect x="364.44" y="261.7" width="5.54" height="2.51"/>
		<path class="st2" d="M373.79,264.81h-13.15l0,0c0-0.34,0.27-0.61,0.61-0.61h11.94C373.52,264.21,373.79,264.48,373.79,264.81
			L373.79,264.81z"/>
	</g>
	<g id="Globe_2_">
		<path d="M250,73.43c14.44,0,28.23,3.31,40.99,9.85c12.18,6.24,22.95,15.35,31.17,26.35c1.64,2.19,3.23,4.55,4.73,6.99
			c0.3,0.5,0.61,1.01,0.9,1.52l0.13,0.22l0.11,0.16l0.11,0.2c7.76,13.54,11.86,28.99,11.86,44.71s-4.1,31.17-11.85,44.68
			c-0.47,0.81-0.86,1.47-1.22,2.06l-0.02,0.03l-0.02,0.03c-1.42,2.33-3.01,4.69-4.73,6.99c-8.21,11-18.99,20.11-31.16,26.35
			c-12.75,6.54-26.55,9.85-40.99,9.85c-28.12,0-54.1-12.78-71.29-35.07c-2.01-2.61-3.89-5.34-5.6-8.14l-0.02-0.03l-0.02-0.03
			c-0.37-0.59-0.75-1.24-1.21-2.03C164.1,194.6,160,179.15,160,163.43s4.1-31.17,11.88-44.72l0.1-0.18l0.11-0.16l0.13-0.23
			c0.29-0.51,0.6-1.02,0.89-1.5c1.71-2.81,3.59-5.54,5.59-8.13C195.89,86.22,221.88,73.43,250,73.43 M250,63.43
			c-32.25,0-60.94,15.27-79.22,38.97c-2.23,2.89-4.3,5.9-6.21,9.03c-0.34,0.56-0.68,1.13-1.01,1.7c-0.13,0.2-0.25,0.41-0.37,0.62
			c-8.39,14.63-13.19,31.6-13.19,49.68c0,18.08,4.8,35.05,13.19,49.68c0.45,0.78,0.91,1.56,1.38,2.32c1.91,3.13,3.99,6.15,6.22,9.04
			c18.28,23.7,46.96,38.96,79.21,38.96c32.82,0,61.94-15.8,80.17-40.22c1.87-2.51,3.63-5.1,5.26-7.78c0.47-0.76,0.93-1.54,1.38-2.32
			c8.39-14.63,13.19-31.6,13.19-49.68c0-18.08-4.8-35.05-13.19-49.68c-0.12-0.21-0.24-0.42-0.37-0.62c-0.33-0.57-0.67-1.14-1.01-1.7
			c-1.64-2.68-3.39-5.28-5.27-7.79C311.93,79.23,282.81,63.43,250,63.43L250,63.43z"/>
		<rect x="250" y="159.93" width="95.13" height="7"/>
		<rect x="155.35" y="159.93" width="94.65" height="7"/>
		<rect x="246.5" y="73.09" width="7" height="180.7"/>
		<path d="M250,139.19c-13.94,0-27.69-2.06-40.88-6.13c-12.7-3.92-24.8-9.68-35.98-17.13l3.88-5.82
			c10.61,7.08,22.1,12.55,34.16,16.26c12.52,3.86,25.58,5.82,38.82,5.82c13.24,0,26.3-1.96,38.81-5.82
			c12.05-3.72,23.55-9.19,34.16-16.26l3.88,5.82c-11.17,7.45-23.28,13.21-35.98,17.13C277.69,137.13,263.94,139.19,250,139.19z"/>
		<path d="M322.97,216.75c-10.66-7.12-22.25-12.62-34.45-16.35c-12.45-3.8-25.41-5.73-38.52-5.73c-13.12,0-26.08,1.93-38.53,5.73
			c-12.19,3.73-23.78,9.23-34.44,16.35l-3.89-5.82c11.23-7.5,23.44-13.29,36.29-17.22c13.11-4.01,26.76-6.04,40.57-6.04
			c13.81,0,27.46,2.03,40.57,6.04c12.85,3.93,25.05,9.72,36.29,17.22L322.97,216.75z"/>
		<path d="M247.9,256.58c-25.7-19.28-37.04-44.64-42.02-62.52c-4.23-15.23-4.55-27.29-4.55-30.63c0-10.47,1.43-20.81,4.25-30.74
			c10.46-36.97,37.08-58.47,42.32-62.41l4.21,5.59c-4.92,3.7-29.94,23.91-39.79,58.73c-2.65,9.3-3.99,19-3.99,28.83
			c0,3.11,0.31,14.38,4.3,28.75c4.69,16.83,15.35,40.7,39.47,58.8L247.9,256.58z"/>
		<path d="M252.1,256.58l-4.2-5.6c24.13-18.1,34.79-41.96,39.47-58.8c3.99-14.37,4.3-25.64,4.3-28.75c0-9.82-1.34-19.52-3.99-28.82
			c-9.85-34.81-34.88-55.03-39.79-58.73l4.21-5.59c5.23,3.94,31.86,25.45,42.32,62.41c2.82,9.92,4.25,20.26,4.25,30.73
			c0,3.34-0.33,15.4-4.55,30.62C289.14,211.94,277.8,237.3,252.1,256.58z"/>
	</g>
</g>
<g id="IPv6">
</g>
</svg>
