<?xml version="1.0" encoding="utf-8"?>
<!-- Generator: Adobe Illustrator 25.2.0, SVG Export Plug-In . SVG Version: 6.00 Build 0)  -->
<svg version="1.1" xmlns="http://www.w3.org/2000/svg" xmlns:xlink="http://www.w3.org/1999/xlink" x="0px" y="0px"
	 viewBox="0 0 500 326.87" style="enable-background:new 0 0 500 326.87;" xml:space="preserve">
<style type="text/css">
	.st0{fill:none;stroke:#000000;stroke-width:7;stroke-miterlimit:10;}
	.st1{fill:#0892FF;}
	.st2{display:none;}
	.st3{fill:#D10037;}
	.st4{fill:#FF74FD;}
	.st5{fill:#93FFA7;}
	.st6{fill:#FF0A38;}
	.st7{fill:#505151;}
	.st8{fill:#FF991F;}
	.st9{display:none;fill:none;stroke:#000000;stroke-miterlimit:10;}
</style>
<g id="layer_1">
</g>
<g id="PCs">
</g>
<g id="Art_1">
</g>
<g id="Art_2">
</g>
<g id="Art_3">
</g>
<g id="IPv6">
	<g id="Globe_3_">
		<path d="M247.9,69.93c14.44,0,28.23,3.31,40.99,9.85c12.18,6.24,22.95,15.35,31.17,26.35c1.64,2.19,3.23,4.55,4.73,6.99
			c0.3,0.5,0.61,1.01,0.9,1.52l0.13,0.22l0.11,0.16l0.11,0.2c7.76,13.54,11.86,28.99,11.86,44.71s-4.1,31.17-11.85,44.68
			c-0.47,0.81-0.86,1.47-1.22,2.06l-0.02,0.03l-0.02,0.03c-1.42,2.33-3.01,4.69-4.73,6.99c-8.21,11-18.99,20.11-31.16,26.35
			c-12.75,6.54-26.55,9.85-40.99,9.85c-28.12,0-54.1-12.78-71.29-35.07c-2.01-2.61-3.89-5.34-5.6-8.14l-0.02-0.03l-0.02-0.03
			c-0.37-0.59-0.75-1.24-1.21-2.03c-7.76-13.54-11.86-28.99-11.86-44.71s4.1-31.17,11.88-44.72l0.1-0.18l0.11-0.16l0.13-0.23
			c0.29-0.51,0.6-1.02,0.89-1.5c1.71-2.81,3.59-5.54,5.59-8.13C193.79,82.72,219.78,69.93,247.9,69.93 M247.9,59.93
			c-32.25,0-60.94,15.27-79.22,38.97c-2.23,2.89-4.3,5.9-6.21,9.03c-0.34,0.56-0.68,1.13-1.01,1.7c-0.13,0.2-0.25,0.41-0.37,0.62
			c-8.39,14.63-13.19,31.6-13.19,49.68c0,18.08,4.8,35.05,13.19,49.68c0.45,0.78,0.91,1.56,1.38,2.32c1.91,3.13,3.99,6.15,6.22,9.04
			c18.28,23.7,46.96,38.96,79.21,38.96c32.82,0,61.94-15.8,80.17-40.22c1.87-2.51,3.63-5.1,5.26-7.78c0.47-0.76,0.93-1.54,1.38-2.32
			c8.39-14.63,13.19-31.6,13.19-49.68c0-18.08-4.8-35.05-13.19-49.68c-0.12-0.21-0.24-0.42-0.37-0.62c-0.33-0.57-0.67-1.14-1.01-1.7
			c-1.64-2.68-3.39-5.28-5.27-7.79C309.83,75.73,280.71,59.93,247.9,59.93L247.9,59.93z"/>
		<rect x="247.9" y="156.43" width="95.13" height="7"/>
		<rect x="153.24" y="156.43" width="94.65" height="7"/>
		<rect x="244.4" y="69.59" width="7" height="180.7"/>
		<path d="M247.9,135.69c-13.94,0-27.69-2.06-40.88-6.13c-12.7-3.92-24.8-9.68-35.98-17.13l3.88-5.82
			c10.61,7.08,22.1,12.55,34.16,16.26c12.52,3.86,25.58,5.82,38.82,5.82c13.24,0,26.3-1.96,38.81-5.82
			c12.05-3.72,23.55-9.19,34.16-16.26l3.88,5.82c-11.17,7.45-23.28,13.21-35.98,17.13C275.59,133.63,261.83,135.69,247.9,135.69z"/>
		<path d="M320.87,213.25c-10.66-7.12-22.25-12.62-34.45-16.35c-12.45-3.8-25.41-5.73-38.52-5.73c-13.12,0-26.08,1.93-38.53,5.73
			c-12.19,3.73-23.78,9.23-34.44,16.35l-3.89-5.82c11.23-7.5,23.44-13.29,36.29-17.22c13.11-4.01,26.76-6.04,40.57-6.04
			c13.81,0,27.46,2.03,40.57,6.04c12.85,3.93,25.05,9.72,36.29,17.22L320.87,213.25z"/>
		<path d="M245.8,253.08c-25.7-19.28-37.04-44.64-42.02-62.52c-4.23-15.23-4.55-27.29-4.55-30.63c0-10.47,1.43-20.81,4.25-30.74
			c10.46-36.97,37.08-58.47,42.32-62.41l4.21,5.59c-4.92,3.7-29.94,23.91-39.79,58.73c-2.65,9.3-3.99,19-3.99,28.83
			c0,3.11,0.31,14.38,4.3,28.75c4.69,16.83,15.35,40.7,39.47,58.8L245.8,253.08z"/>
		<path d="M250,253.08l-4.2-5.6c24.13-18.1,34.79-41.96,39.47-58.8c3.99-14.37,4.3-25.64,4.3-28.75c0-9.82-1.34-19.52-3.99-28.82
			c-9.85-34.81-34.87-55.03-39.79-58.73l4.21-5.59c5.23,3.94,31.86,25.45,42.32,62.41c2.82,9.92,4.25,20.26,4.25,30.73
			c0,3.34-0.33,15.4-4.55,30.62C287.03,208.44,275.7,233.8,250,253.08z"/>
	</g>
	<g id="ipv6_pc">
		<ellipse cx="170.15" cy="76.66" rx="10.88" ry="2.78"/>
		<g>
			<path d="M171.07,70.66c0,0.51-0.41,0.92-0.92,0.92c-0.51,0-0.92-0.41-0.92-0.92c0-0.44,0.32-0.82,0.74-0.9v0.95
				c0,0.1,0.08,0.18,0.18,0.18c0.1,0,0.18-0.08,0.18-0.18v-0.95C170.76,69.84,171.07,70.22,171.07,70.66z"/>
		</g>
		<g>
			<path d="M191.83,42.42h-43.58c-0.48,0-0.86,0.39-0.86,0.86v28.37c0,0.48,0.39,0.86,0.86,0.86h43.58c0.48,0,0.86-0.39,0.86-0.86
				V43.29C192.69,42.81,192.31,42.42,191.83,42.42z M170.15,71.94c-0.7,0-1.27-0.57-1.27-1.28c0-0.64,0.47-1.17,1.09-1.26v-0.52
				c0-0.1,0.08-0.18,0.18-0.18c0.1,0,0.18,0.08,0.18,0.18v0.52c0.62,0.09,1.09,0.62,1.09,1.26
				C171.43,71.37,170.86,71.94,170.15,71.94z"/>
		</g>
		<rect x="151.05" y="45.89" class="st1" width="38.21" height="21.79"/>
		<rect x="168.1" y="72.52" width="4.11" height="1.86"/>
		<path class="st2" d="M175.04,74.83h-9.77l0,0c0-0.25,0.2-0.45,0.45-0.45h8.87C174.83,74.38,175.04,74.58,175.04,74.83
			L175.04,74.83z"/>
	</g>
	<g id="ipv6_pc_5_">
		<ellipse cx="325.85" cy="280.54" rx="10.88" ry="2.78"/>
		<g>
			<path d="M326.78,274.54c0,0.51-0.41,0.92-0.92,0.92c-0.51,0-0.92-0.41-0.92-0.92c0-0.44,0.32-0.82,0.74-0.9v0.95
				c0,0.1,0.08,0.18,0.18,0.18c0.1,0,0.18-0.08,0.18-0.18v-0.95C326.46,273.72,326.78,274.1,326.78,274.54z"/>
		</g>
		<g>
			<path d="M347.53,246.3h-43.58c-0.48,0-0.86,0.39-0.86,0.86v28.37c0,0.48,0.39,0.86,0.86,0.86h43.58c0.48,0,0.86-0.39,0.86-0.86
				v-28.37C348.4,246.69,348.01,246.3,347.53,246.3z M325.85,275.82c-0.7,0-1.27-0.57-1.27-1.28c0-0.64,0.47-1.17,1.09-1.26v-0.52
				c0-0.1,0.08-0.18,0.18-0.18c0.1,0,0.18,0.08,0.18,0.18v0.52c0.62,0.09,1.09,0.62,1.09,1.26
				C327.13,275.24,326.56,275.82,325.85,275.82z"/>
		</g>
		<rect x="306.75" y="249.76" class="st7" width="38.21" height="21.79"/>
		<rect x="323.8" y="276.4" width="4.11" height="1.86"/>
		<path class="st2" d="M330.74,278.71h-9.77l0,0c0-0.25,0.2-0.45,0.45-0.45h8.87C330.54,278.26,330.74,278.46,330.74,278.71
			L330.74,278.71z"/>
	</g>
	<g id="ipv6_pc_4_">
		<ellipse cx="374.11" cy="177.09" rx="10.88" ry="2.78"/>
		<g>
			<path d="M375.03,171.09c0,0.51-0.41,0.92-0.92,0.92c-0.51,0-0.92-0.41-0.92-0.92c0-0.44,0.32-0.82,0.74-0.9v0.95
				c0,0.1,0.08,0.18,0.18,0.18c0.1,0,0.18-0.08,0.18-0.18v-0.95C374.71,170.27,375.03,170.64,375.03,171.09z"/>
		</g>
		<g>
			<path d="M395.79,142.85h-43.58c-0.48,0-0.86,0.39-0.86,0.86v28.37c0,0.48,0.39,0.86,0.86,0.86h43.58c0.48,0,0.86-0.39,0.86-0.86
				v-28.37C396.65,143.24,396.27,142.85,395.79,142.85z M374.11,172.37c-0.7,0-1.27-0.57-1.27-1.28c0-0.64,0.47-1.17,1.09-1.26
				v-0.52c0-0.1,0.08-0.18,0.18-0.18c0.1,0,0.18,0.08,0.18,0.18v0.52c0.62,0.09,1.09,0.62,1.09,1.26
				C375.38,171.79,374.81,172.37,374.11,172.37z"/>
		</g>
		<rect x="355" y="146.31" class="st8" width="38.21" height="21.79"/>
		<rect x="372.05" y="172.94" width="4.11" height="1.86"/>
		<path class="st2" d="M378.99,175.26h-9.77l0,0c0-0.25,0.2-0.45,0.45-0.45h8.87C378.79,174.81,378.99,175.01,378.99,175.26
			L378.99,175.26z"/>
	</g>
	<g id="ipv6_pc_3_">
		<ellipse cx="170.19" cy="280.54" rx="10.88" ry="2.78"/>
		<g>
			<path d="M171.11,274.54c0,0.51-0.41,0.92-0.92,0.92c-0.51,0-0.92-0.41-0.92-0.92c0-0.44,0.32-0.82,0.74-0.9v0.95
				c0,0.1,0.08,0.18,0.18,0.18c0.1,0,0.18-0.08,0.18-0.18v-0.95C170.79,273.72,171.11,274.1,171.11,274.54z"/>
		</g>
		<g>
			<path d="M191.86,246.3h-43.58c-0.48,0-0.86,0.39-0.86,0.86v28.37c0,0.48,0.39,0.86,0.86,0.86h43.58c0.48,0,0.86-0.39,0.86-0.86
				v-28.37C192.73,246.69,192.34,246.3,191.86,246.3z M170.19,275.82c-0.7,0-1.27-0.57-1.27-1.28c0-0.64,0.47-1.17,1.09-1.26v-0.52
				c0-0.1,0.08-0.18,0.18-0.18c0.1,0,0.18,0.08,0.18,0.18v0.52c0.62,0.09,1.09,0.62,1.09,1.26
				C171.46,275.24,170.89,275.82,170.19,275.82z"/>
		</g>
		<rect x="151.08" y="249.76" class="st4" width="38.21" height="21.79"/>
		<rect x="168.13" y="276.4" width="4.11" height="1.86"/>
		<path class="st2" d="M175.07,278.71h-9.77l0,0c0-0.25,0.2-0.45,0.45-0.45h8.87C174.87,278.26,175.07,278.46,175.07,278.71
			L175.07,278.71z"/>
	</g>
	<g id="ipv6_pc_2_">
		<ellipse cx="121.91" cy="177.09" rx="10.88" ry="2.78"/>
		<g>
			<path d="M122.83,171.09c0,0.51-0.41,0.92-0.92,0.92c-0.51,0-0.92-0.41-0.92-0.92c0-0.44,0.32-0.82,0.74-0.9v0.95
				c0,0.1,0.08,0.18,0.18,0.18c0.1,0,0.18-0.08,0.18-0.18v-0.95C122.51,170.27,122.83,170.64,122.83,171.09z"/>
		</g>
		<g>
			<path d="M143.58,142.85H100c-0.48,0-0.86,0.39-0.86,0.86v28.37c0,0.48,0.39,0.86,0.86,0.86h43.58c0.48,0,0.86-0.39,0.86-0.86
				v-28.37C144.45,143.24,144.06,142.85,143.58,142.85z M121.91,172.37c-0.7,0-1.27-0.57-1.27-1.28c0-0.64,0.47-1.17,1.09-1.26
				v-0.52c0-0.1,0.08-0.18,0.18-0.18c0.1,0,0.18,0.08,0.18,0.18v0.52c0.62,0.09,1.09,0.62,1.09,1.26
				C123.18,171.79,122.61,172.37,121.91,172.37z"/>
		</g>
		<rect x="102.8" y="146.31" class="st6" width="38.21" height="21.79"/>
		<rect x="119.85" y="172.94" width="4.11" height="1.86"/>
		<path class="st2" d="M126.79,175.26h-9.77l0,0c0-0.25,0.2-0.45,0.45-0.45h8.87C126.59,174.81,126.79,175.01,126.79,175.26
			L126.79,175.26z"/>
	</g>
	<g id="ipv6_pc_1_">
		<ellipse cx="325.85" cy="76.66" rx="10.88" ry="2.78"/>
		<g>
			<path d="M326.78,70.66c0,0.51-0.41,0.92-0.92,0.92c-0.51,0-0.92-0.41-0.92-0.92c0-0.44,0.32-0.82,0.74-0.9v0.95
				c0,0.1,0.08,0.18,0.18,0.18c0.1,0,0.18-0.08,0.18-0.18v-0.95C326.46,69.84,326.78,70.22,326.78,70.66z"/>
		</g>
		<g>
			<path d="M347.53,42.42h-43.58c-0.48,0-0.86,0.39-0.86,0.86v28.37c0,0.48,0.39,0.86,0.86,0.86h43.58c0.48,0,0.86-0.39,0.86-0.86
				V43.29C348.4,42.81,348.01,42.42,347.53,42.42z M325.85,71.94c-0.7,0-1.27-0.57-1.27-1.28c0-0.64,0.47-1.17,1.09-1.26v-0.52
				c0-0.1,0.08-0.18,0.18-0.18c0.1,0,0.18,0.08,0.18,0.18v0.52c0.62,0.09,1.09,0.62,1.09,1.26
				C327.13,71.37,326.56,71.94,325.85,71.94z"/>
		</g>
		<rect x="306.75" y="45.89" class="st5" width="38.21" height="21.79"/>
		<rect x="323.8" y="72.52" width="4.11" height="1.86"/>
		<path class="st2" d="M330.74,74.83h-9.77l0,0c0-0.25,0.2-0.45,0.45-0.45h8.87C330.54,74.38,330.74,74.58,330.74,74.83
			L330.74,74.83z"/>
	</g>
	<line class="st9" x1="302.1" y1="31.09" x2="302.1" y2="303.04"/>
	<line class="st9" x1="193.69" y1="31.09" x2="193.69" y2="303.04"/>
	<line class="st9" x1="127.74" y1="246.3" x2="367.61" y2="246.3"/>
	<line class="st9" x1="127.74" y1="73.38" x2="367.61" y2="73.38"/>
</g>
</svg>
